<?xml version="1.0" standalone="no"?>
<!DOCTYPE svg PUBLIC "-//W3C//DTD SVG 20010904//EN"
 "http://www.w3.org/TR/2001/REC-SVG-20010904/DTD/svg10.dtd">
<svg version="1.0" xmlns="http://www.w3.org/2000/svg"
 width="3840.000000pt" height="2160.000000pt" viewBox="0 0 3840.000000 2160.000000"
 preserveAspectRatio="xMidYMid meet">

<g transform="translate(0.000000,2160.000000) scale(0.100000,-0.100000)"
fill="#000000" stroke="none">
<path  d="M21280 21359 c-1302 -62 -2599 -302 -4025 -745 -2006 -624 -4134
-1919 -5995 -3649 -96 -90 -292 -282 -436 -427 l-261 -263 -214 57 c-645 173
-1434 335 -2019 412 -773 103 -1394 94 -1768 -25 -201 -65 -335 -152 -432
-281 -97 -129 -141 -231 -177 -413 -24 -123 -24 -477 1 -655 118 -849 518
-1985 1170 -3323 l107 -219 -51 -154 c-251 -766 -349 -1875 -265 -2994 58
-767 222 -1462 520 -2195 219 -540 522 -1100 817 -1512 44 -61 80 -115 80
-120 -1 -4 -9 -10 -19 -12 -10 -1 -83 -23 -163 -48 -562 -173 -931 -425 -1040
-710 -32 -82 -39 -231 -15 -304 103 -318 617 -625 1271 -758 297 -61 489 -77
938 -80 l308 -2 257 -247 c141 -136 322 -306 402 -378 1379 -1249 2683 -1886
4191 -2049 248 -27 454 -34 908 -30 644 6 1073 43 1692 146 800 133 1487 329
2763 787 512 184 684 241 1126 371 670 198 1342 313 2224 380 661 51 1118 66
2025 66 l515 0 330 -48 c1083 -157 1894 -319 2746 -547 832 -223 1571 -488
2083 -747 l154 -78 6 61 c11 107 -10 419 -45 674 -144 1042 -619 2225 -1324
3295 -259 392 -667 809 -1139 1163 -688 515 -1674 1003 -2541 1257 -88 25
-166 48 -173 51 -40 13 530 425 876 633 556 334 1150 592 1683 731 194 50 605
138 859 184 587 106 1130 169 1800 208 254 14 1120 15 1300 1 69 -6 126 -9
127 -8 13 9 -108 386 -192 600 -299 765 -762 1539 -1323 2213 -353 426 -814
883 -1242 1233 -344 282 -951 632 -1515 874 -929 399 -2031 635 -2962 635
-117 0 -213 3 -213 6 0 4 23 46 52 93 383 639 1039 1298 1785 1794 418 277
719 430 1203 610 803 298 1851 530 2899 642 129 14 236 27 238 28 6 7 -316
344 -448 468 -805 757 -1724 1392 -2779 1918 -602 300 -1083 494 -1758 710
-1298 415 -2385 627 -3647 711 -207 14 -1049 20 -1275 9z m-4974 -7443 c728
-152 1329 -751 1741 -1734 344 -824 550 -2085 550 -3367 0 -966 -114 -1800
-338 -2480 -127 -383 -429 -863 -767 -1216 -685 -716 -1578 -1058 -2767 -1060
-277 0 -409 10 -655 47 -333 51 -535 102 -1215 306 -805 241 -1193 309 -1690
294 -121 -3 -233 -9 -248 -12 -28 -6 -27 -6 20 57 221 293 268 875 142 1769
l-32 224 -44 54 c-55 67 -74 106 -163 327 -40 99 -81 197 -91 217 l-19 38 62
-34 c86 -47 159 -66 248 -67 99 -1 159 14 244 59 65 34 205 153 226 192 4 8
13 69 19 135 102 1081 302 2100 578 2940 388 1181 1003 2105 1779 2670 412
301 903 506 1399 585 72 11 191 32 265 45 216 40 265 44 455 40 142 -3 205 -9
301 -29z m-7527 -2430 c75 -38 162 -141 220 -260 82 -167 137 -354 246 -826
72 -310 114 -476 169 -665 25 -82 47 -177 50 -211 11 -118 57 -243 250 -667
111 -246 180 -409 201 -477 7 -21 2 -19 -41 19 -68 60 -81 66 -94 42 -5 -11
-10 -37 -10 -58 l0 -39 -58 -12 c-228 -47 -371 -312 -413 -762 -12 -133 -7
-407 11 -565 43 -378 178 -914 320 -1270 161 -403 354 -702 544 -842 l58 -43
-40 0 c-50 0 -238 32 -379 64 -306 71 -627 109 -713 86 -52 -14 -108 -66 -116
-109 -6 -28 -23 -1 -186 292 -202 361 -324 605 -393 782 -26 66 -76 184 -111
263 -293 645 -418 1270 -554 2762 -29 319 -30 344 -20 530 53 949 351 1763
717 1958 104 55 242 58 342 8z"/>
<path d="M16080 10394 c-8 -3 -44 -14 -80 -26 -319 -100 -509 -386 -577 -872
-24 -168 -24 -645 1 -921 23 -266 80 -743 111 -935 189 -1156 590 -1805 1148
-1857 142 -13 413 28 517 78 101 50 213 168 272 289 120 244 166 555 155 1050
-10 432 -67 983 -152 1467 -121 685 -310 1148 -580 1419 -144 145 -292 231
-480 280 -97 24 -299 42 -335 28z"/>
</g>
</svg>
